<svg version="1.1" id="logo" xmlns="http://www.w3.org/2000/svg" xmlns:xlink="http://www.w3.org/1999/xlink" x="0px" y="0px"
	 viewBox="0 0 787.7 559.9" style="enable-background:new 0 0 787.7 559.9;" xml:space="preserve">
	<style type="text/css">
		.jaune{fill:#F9AE14;}
		.blanc{fill:#fff;}
		.rouge{fill:#e93e34;}
		.noir{fill:#161616;}
		.font-style-1{font-family:'mesmerize';font-weight: 800;}
		.font-style-2{font-family:'mesmerize'; font-weight: 200;}
		.font-size-1{font-size:231.5851px;}
		.font-size-2{font-size:105.3849px;}
		
		
	</style>
	<defs>
<filter id="whiteOutlineEffect" color-interpolation-filters="sRGB">
  <feMorphology in="SourceAlpha" result="MORPH" operator="dilate" radius="2" />
  <feColorMatrix in="MORPH" result="WHITENED" type="matrix" values="-1 0 0 0 1, 0 -1 0 0 1, 0 0 -1 0 1, 0 0 0 1 0"/>
  <feMerge>
    <feMergeNode in="WHITENED"/>
    <feMergeNode in="SourceGraphic"/>
  </feMerge>
</filter>
</defs>

	<path id="soleil" class="jaune" d="M276.1,392.3l-3.5,0.3h242l-3.5-0.3L784.8,372l-274.3,8.1l270.1-48.5l-272,36.5L772,291.9
		l-266.6,64.4l254-103L501,345l241.7-128.7L495.4,334.1l226.8-153L488.7,323.9l209.4-175.7L481,314.4l189.7-196.4L472.3,305.8
		L640.2,90.9L462.7,298.2L607,67L452.4,291.5L571.5,46.7L441.4,286L534,30.2L429.9,281.6L495,17.7l-77,260.8L454.9,9.2l-49,267.3
		L414.1,5l-20.5,270.9L373.1,5l8.2,271.6l-49-267.3l36.8,269.2l-77-260.8l65.1,263.9L253.2,30.2L345.8,286L215.8,46.7l119.1,244.8
		L180.2,67l144.3,231.1L147.1,90.9L315,305.8L116.6,118.1l189.7,196.4L89.2,148.2l209.4,175.7L65.1,181.1l226.8,153L44.6,216.2
		L286.2,345L27.9,253.3l254,103L15.2,291.9l263.5,76.2l-272-36.5l270.1,48.5L2.4,372L276.1,392.3z"/>
	<text id="pampa" transform="matrix(1 0 0 1 -12.8862 466.2836)" class="noir font-style-1 font-size-1"  filter="url(#whiteOutlineEffect)">PAMPA</text>
	<text id="hard" transform="matrix(1 0 0 1 -4.2602 557.9037)" class="blanc font-style-2 font-size-2">HARD SELTZER</text>
</svg>
